<?xml version="1.0" encoding="UTF-8"?>
<svg id="Layer_1" data-name="Layer 1" width="512" height="512" class="card-image-icon" xmlns="http://www.w3.org/2000/svg" viewBox="0 0 320.95 321">
  <path d="m226.01,232.22c-1.59,0-3.18-.6-4.39-1.82-7.66-7.66-11.88-17.89-11.88-28.79s4.22-21.13,11.88-28.79l75.38-75.39c11.03-11.03,11.03-28.98,0-40.02l-17.63-17.63c-11.03-11.03-28.98-11.03-40.02,0-2.42,2.42-6.35,2.42-8.77,0-2.42-2.43-2.42-6.35,0-8.77,15.88-15.86,41.7-15.86,57.57,0l17.63,17.65c15.88,15.87,15.88,41.69,0,57.56l-75.38,75.39c-5.33,5.32-8.25,12.43-8.25,20.01s2.92,14.69,8.25,20.01c2.42,2.42,2.42,6.35,0,8.77-1.21,1.22-2.81,1.82-4.39,1.82Z" fill="#7a8e9b"/>
  <path d="m279.54,317.67l-61.84-73.46c-3.14-3.71-2.9-9.21.54-12.64l6.7-6.69,6.59-6.59c3.44-3.44,8.93-3.68,12.64-.55l73.45,61.84c4.19,3.54,4.47,9.91.59,13.77l-24.9,24.9c-3.87,3.88-10.24,3.6-13.77-.59Z" fill="#525c6b"/>
  <path d="m223.58,39.14c-4.26,4.25-11.16,4.25-15.41,0h0l-3.32-3.3c-7.26-7.26-19.04-7.26-26.3,0-7.28,7.28-7.28,19.06,0,26.34l33.6,33.59c4.68,4.69,4.68,12.29,0,16.96-4.68,4.7-12.28,4.7-16.97,0h0s-11.39-11.39-11.39-11.39c-6.96-6.94-18.21-6.94-25.16,0-6.94,6.94-6.94,18.22,0,25.16l10.45,10.44c5.21,5.21,5.21,13.66,0,18.86-5.21,5.21-13.66,5.21-18.87,0h0l-22.82-22.81c-9.81-9.82-25.72-9.82-35.54,0-9.8,9.81-9.81,25.71,0,35.52l13.32,13.32h0c3.44,3.44,3.44,9.01,0,12.46-3.44,3.44-9.01,3.44-12.45,0h0l-10.02-10.02c-6.78-6.77-17.78-6.77-24.57,0-6.78,6.79-6.78,17.79,0,24.57l1.97,1.97c6.79,6.79,6.79,17.79,0,24.57-6.78,6.79-17.78,6.79-24.57,0l29.2,29.19c7.72,7.72,20.35,7.72,28.07,0l171.77-171.75c7.72-7.73,7.72-20.36,0-28.09l-41-41c4.25,4.25,4.25,11.15,0,15.41Z" fill="#e2e2e2"/>
  <path d="m177.54,5.79L5.79,177.55c-7.72,7.73-7.72,20.36,0,28.09l29.75,29.75c6.79,6.79,17.79,6.79,24.57,0,6.79-6.79,6.79-17.79,0-24.57l-1.97-1.97c-6.78-6.79-6.78-17.79,0-24.57,6.79-6.77,17.79-6.77,24.57,0l10.02,10.02h0c3.44,3.44,9.01,3.44,12.45,0,3.44-3.44,3.44-9.01,0-12.46h0l-13.32-13.32c-9.8-9.81-9.79-25.71,0-35.52,9.82-9.82,25.73-9.82,35.54,0l22.82,22.81h0c5.21,5.21,13.66,5.21,18.87,0,5.21-5.2,5.21-13.66,0-18.86l-10.45-10.44c-6.94-6.94-6.94-18.22,0-25.16,6.96-6.94,18.21-6.94,25.16,0l11.39,11.41h0c4.69,4.69,12.29,4.69,16.97-.01,4.68-4.67,4.68-12.27,0-16.96l-33.6-33.59c-7.28-7.28-7.28-19.06,0-26.34,7.26-7.26,19.05-7.26,26.3,0l3.32,3.3h0c4.25,4.25,11.15,4.25,15.41,0,4.25-4.25,4.25-11.15,0-15.41l-17.95-17.94c-7.72-7.73-20.35-7.73-28.09,0Z" fill="#ffbd66"/>
</svg>