<?xml version="1.0" encoding="UTF-8"?>
<svg id="Layer_1" width="512" height="512" class="card-image-icon" data-name="Layer 1" xmlns="http://www.w3.org/2000/svg" viewBox="0 0 310.79 246.63">
  <g>
    <rect y="128.33" width="54.13" height="54.14" fill="#db5743"/>
    <polygon points="0 64.16 0 118.3 59.16 118.3 118.3 118.3 118.3 64.16 59.16 64.16 0 64.16" fill="#db5743"/>
    <polygon points="187.49 192.49 128.33 192.49 128.33 246.63 246.65 246.63 246.65 192.49 187.49 192.49" fill="#db5743"/>
  </g>
  <g>
    <rect x="256.66" y="192.49" width="54.13" height="54.14" fill="#f87670"/>
    <polygon points="0 192.49 0 246.63 118.3 246.63 118.3 192.49 59.16 192.49 0 192.49" fill="#f87670"/>
    <polygon points="246.65 64.16 187.49 64.16 128.33 64.16 128.33 118.3 187.49 118.3 246.65 118.3 246.65 64.16" fill="#f87670"/>
    <polygon points="64.17 128.33 64.17 182.47 123.32 182.47 182.48 182.47 182.48 128.33 123.32 128.33 64.17 128.33" fill="#f87670"/>
    <polygon points="251.66 128.33 192.5 128.33 192.5 182.47 251.66 182.47 310.79 182.47 310.79 128.33 251.66 128.33" fill="#f87670"/>
    <polygon points="182.48 54.14 182.48 0 64.17 0 64.17 54.14 123.32 54.14 182.48 54.14" fill="#f87670"/>
  </g>
</svg>