<?xml version="1.0" encoding="UTF-8"?>
<svg id="Layer_1" class="card-image-icon" data-name="Layer 1" xmlns="http://www.w3.org/2000/svg" viewBox="0 0 227.09 297.64">
  <path d="m225.61,175.15L122.04,4.79c-1.92-3.18-5.22-4.79-8.49-4.79v170.9c10.12,0,20.24,1.1,30.19,3.31l71.2,15.83c8.56,1.9,15.22-7.4,10.67-14.89Z" fill="#e2e2e2"/>
  <path d="m105.04,4.79L1.48,175.15c-4.55,7.49,2.1,16.79,10.65,14.89l71.21-15.83c9.94-2.21,20.07-3.31,30.21-3.31V0c-3.3,0-6.58,1.6-8.51,4.79Z" fill="#c6c6c6"/>
  <path d="m131.94,226.52v50.67c0,11.24,9.2,20.45,20.44,20.45s20.45-9.21,20.45-20.45v-50.67h-40.89Z" fill="#e49a61"/>
  <path d="m159.35,226.52h-13.95v-16.13l-34.4-13.48c-2.69-1.05-4.44-3.63-4.44-6.5v-67.67h13.95v62.93l34.4,13.48c2.69,1.05,4.44,3.63,4.44,6.49v20.89Z" fill="#525c6b"/>
  <rect x="131.94" y="245.99" width="40.89" height="9.3" fill="#f1bb6b"/>
</svg>