<?xml version="1.0" encoding="UTF-8"?>
<svg id="Layer_1" class="card-image-icon" data-name="Layer 1" xmlns="http://www.w3.org/2000/svg" viewBox="0 0 281.67 284.67">
  <g>
    <path d="m160.5,0L0,284.67h194.97V0h-34.48Zm-5.93,249.97l-92.8.04,92.8-164.61v164.57Z" fill="#79ccb8"/>
    <g>
      <rect x="175.69" y="24.01" width="19.29" height="8.9" fill="#525c6b"/>
      <rect x="175.69" y="51.71" width="19.29" height="8.89" fill="#525c6b"/>
      <rect x="175.69" y="79.4" width="19.29" height="8.89" fill="#525c6b"/>
      <rect x="175.69" y="107.09" width="19.29" height="8.9" fill="#525c6b"/>
      <rect x="175.69" y="134.79" width="19.29" height="8.89" fill="#525c6b"/>
      <rect x="175.69" y="162.48" width="19.29" height="8.9" fill="#525c6b"/>
      <rect x="175.69" y="190.18" width="19.29" height="8.9" fill="#525c6b"/>
      <rect x="175.69" y="217.87" width="19.29" height="8.9" fill="#525c6b"/>
      <rect x="175.69" y="245.55" width="19.29" height="8.91" fill="#525c6b"/>
    </g>
  </g>
  <g>
    <path d="m247.11,22.24l-10.61,19.72c14.69,4.67,30.48,4.67,45.17,0l-10.62-19.72c-7.93,1.28-16.01,1.28-23.94,0Z" fill="#c6c6c6"/>
    <path d="m271.05,22.24l-11.96-22.24-11.98,22.24c7.93,1.28,16.01,1.28,23.94,0Z" fill="#525c6b"/>
    <path d="m236.5,261.13v10.47c0,7.21,5.84,13.07,13.06,13.07h19.05c7.21,0,13.07-5.86,13.07-13.07v-10.47c-14.69,4.68-30.48,4.68-45.17,0Z" fill="#db5743"/>
    <path d="m236.5,41.96v219.17c7.35,2.33,14.97,3.51,22.59,3.51V45.47c-7.62,0-15.24-1.17-22.59-3.51Z" fill="#fddc85"/>
    <path d="m281.67,41.96c-7.35,2.33-14.97,3.51-22.59,3.51v219.17c7.62,0,15.24-1.18,22.59-3.51V41.96h0Z" fill="#ffbd66"/>
  </g>
</svg>