<?xml version="1.0" encoding="UTF-8"?>
<svg id="Layer_1" data-name="Layer 1" width="512" height="512" class="card-image-icon" xmlns="http://www.w3.org/2000/svg" viewBox="0 0 288.06 283.7">
  <g>
    <rect x="190.49" y="154.76" width="82.93" height="21.81" fill="#c6c6c6"/>
    <rect x="190.49" y="124.2" width="82.93" height="21.82" fill="#c6c6c6"/>
    <rect x="190.49" y="185.31" width="82.93" height="21.83" fill="#c6c6c6"/>
  </g>
  <path d="m233.69,65.69L83.22.36c-1.54-.66-3.3-.4-4.57.68L1.54,66.51l5.65,6.65L82.23,9.46l145.36,63.11v134.57h8.73V69.7c0-1.75-1.03-3.32-2.62-4.01Z" fill="#525c6b"/>
  <g>
    <path d="m66.19,61.11h30.56c1.37,0,2.66-.65,3.48-1.75.82-1.1,1.09-2.52.7-3.84L85.66,3.14c-.55-1.86-2.25-3.14-4.19-3.14s-3.64,1.28-4.19,3.14l-15.27,52.38c-.39,1.32-.13,2.74.7,3.84.82,1.1,2.12,1.75,3.49,1.75Zm15.28-41.16l9.46,32.43h-18.91l9.45-32.43Z" fill="#ffbd66"/>
    <path d="m286.8,92.95l-26.02-26.19c-.81-.83-1.92-1.29-3.09-1.29h-50.9c-.48-.07-.94-.07-1.41,0H4.36c-1.98,0-3.71,1.34-4.22,3.27-.5,1.91.35,3.93,2.08,4.9l46.55,26.2c.65.36,1.39.56,2.14.56h10.91v172.4c0,2.41,1.95,4.37,4.36,4.37h30.56c2.4,0,4.36-1.96,4.36-4.37V100.39h182.58c1.76,0,3.36-1.06,4.03-2.69.68-1.63.31-3.5-.93-4.75Zm-117.3-1.3h-31.31l15.65-15.65,15.65,15.65Zm-5.12-17.46h31.03l-15.52,15.52-15.52-15.52Zm41.71,1.67l15.79,15.79h-31.58l15.79-15.79Zm10.67-1.67h30.4l-15.2,15.2-15.2-15.2Zm-164.69,17.46l-31.04-17.46h45.17c-2.4,0-4.36,1.95-4.36,4.37v13.09h-9.77Zm40.32,0h-21.83v-8.72h21.83v8.72Zm0,104.75h-21.83v-21.82h21.83v21.82Zm-21.83,8.73h21.83v21.82h-21.83v-21.82Zm21.83-39.29h-21.83v-21.81h21.83v21.81Zm0,102.57h-21.83v-32.73h21.83v32.73Zm0-133.11h-21.83v-34.92h21.83v34.92Zm4.37-61.11h46.55l-17.46,17.46h-24.74v-13.09c0-2.42-1.95-4.37-4.36-4.37Zm145.28,17.46l15.64-15.64,15.53,15.64h-31.18Z" fill="#ffbd66"/>
  </g>
  <g>
    <path d="m85.84,48.01h-21.83c-7.23,0-13.09,5.87-13.09,13.1v43.64c0,2.41,1.95,4.36,4.36,4.36h52.37c2.41,0,4.37-1.95,4.37-4.36v-30.55c0-14.45-11.73-26.18-26.19-26.18Z" fill="#7a8e9b"/>
    <path d="m88.33,58.93h-24.39c-1.58,0-2.84,1.27-2.84,2.83v21.42c0,1.57,1.26,2.84,2.84,2.84h35.05c1.57,0,2.84-1.28,2.84-2.84v-10.75c0-7.45-6.05-13.5-13.51-13.5Z" fill="#e2e2e2"/>
  </g>
  <path d="m129.48,261.88H33.46c-9.64,0-17.46,7.82-17.46,17.46v4.36h130.93v-4.36c0-9.64-7.81-17.46-17.46-17.46Z" fill="#525c6b"/>
</svg>