<?xml version="1.0" encoding="UTF-8"?>
<svg id="Layer_1" data-name="Layer 1" xmlns="http://www.w3.org/2000/svg" viewBox="0 0 869.23 575.01">
  <g>
    <path d="m420.97,0C259.68,0,118.31,85.2,39.35,213.03,108.56,126.2,215.2,70.54,334.87,70.54c208.61,0,377.72,169.11,377.72,377.72h156.65C869.23,200.69,668.54,0,420.97,0Z" fill="#015378"/>
    <path d="m330.65,117.62c118.97,0,223.24,62.84,281.49,157.14-51.05-64.05-129.71-105.1-217.98-105.1-153.87,0-278.61,124.74-278.61,278.61H0C0,265.65,148.03,117.62,330.65,117.62Z" fill="#fff"/>
  </g>
  <text transform="translate(149.24 446.48)" fill="#015378" font-family="AdelleSansDevanagari-Bold, &apos;Adelle Sans Devanagari&apos;" font-size="145" font-weight="700"><tspan x="0" y="0" letter-spacing=".07em">P</tspan><tspan x="100.63" y="0" letter-spacing=".1em">elEng</tspan></text>
  <text transform="translate(35.98 550.92)" fill="#fff" font-family="Commissioner-Regular, Commissioner" font-size="72" font-variation-settings="&apos;slnt&apos; 0, &apos;FLAR&apos; 0, &apos;VOLM&apos; 0"><tspan x="0" y="0" letter-spacing=".05em">Consulting Enginee</tspan><tspan x="690.47" y="0" letter-spacing=".03em">r</tspan><tspan x="721.58" y="0" letter-spacing=".05em">s</tspan></text>
</svg>