<?xml version="1.0" encoding="UTF-8"?>
<svg id="Glyph" xmlns="http://www.w3.org/2000/svg" viewBox="0 0 55.97 36.47" width="512" height="512" class="card-image-icon">
  <path d="m28.91,20.32c.55,0,1-.45,1-1h0s5.85,0,5.85,0c0,.55.46.99,1.01.99.54,0,.98-.44.99-.99V3.21c.01-.69.58-1.24,1.26-1.23.67,0,1.22.55,1.23,1.23v1.5c0,.55.45,1,1,1s1-.45,1-1v-1.5C42.23,1.42,40.76-.02,38.97,0c-1.76.02-3.19,1.45-3.21,3.21v3.49h-5.85v-3.48c.01-.69.58-1.24,1.27-1.23.67.01,1.22.55,1.23,1.23v1.5c.01.55.47.99,1.02.98.54-.01.97-.44.98-.98v-1.5c-.02-1.79-1.49-3.23-3.29-3.21-1.76.02-3.19,1.45-3.21,3.21v16.1c0,.55.45,1,1,1h0Zm1-3v-3.27h5.85v3.27h-5.85Zm5.85-8.62v3.35h-5.85v-3.35h5.85Z" fill="#0c1d40"/>
  <path d="m41.12,12.92l-1.37-.43v6.83c-.02,1.66-1.38,2.99-3.05,2.97-.83-.01-1.62-.36-2.18-.97h-3.38c-1.12,1.23-3.03,1.31-4.26.18-.61-.56-.96-1.35-.97-2.18v-7.44c-5.15.03-22.94,1.92-25.71,8.55-.73,1.83.52,4.68,3.1,6.02.2.02,1.92.3,3.74.59,7.93,1.35,10.99,1.59,12.08,1.8.95-.07,3.34.93,4.88,4.78,4.23,4.81,13.6,2.51,19.37.55,16.29-6.04,18.04-16.64-2.25-21.25Zm3.38,16.46c-3.97,1.87-8.28,2.91-12.67,3.05-.55,0-1-.45-1-1s.45-1,1-1c4.1-.14,8.13-1.11,11.84-2.87.51-.22,1.1.02,1.31.53.21.49,0,1.06-.48,1.29Z" fill="#44afef"/>
</svg>