<?xml version="1.0" encoding="UTF-8"?>
<svg id="Layer_1" class="card-image-icon" data-name="Layer 1" xmlns="http://www.w3.org/2000/svg" viewBox="0 0 246.51 228.3">
  <polygon points="0 0 0 228.3 172.11 228.3 172.11 42.4 129.71 0 0 0" fill="#e2e2e2"/>
  <polygon points="172.11 42.4 129.71 0 129.71 42.4 172.11 42.4" fill="#c6c6c6"/>
  <rect x="32.63" y="38.55" width="66.07" height="7.69" fill="#525c6b"/>
  <rect x="32.63" y="69.12" width="106.85" height="7.7" fill="#525c6b"/>
  <rect x="32.63" y="99.7" width="97.08" height="7.71" fill="#525c6b"/>
  <rect x="32.63" y="130.28" width="79.72" height="7.69" fill="#525c6b"/>
  <path d="m117.69,196.59s-.89.03-2.56.11c-1.68.05-4.16.17-7.39-.13-3.15-.23-7.39-1.34-11.12-3.79-1.93-1.17-3.89-2.59-5.75-4.4-1.83-1.81-3.64-4.05-4.57-7.05-.95-2.99-.33-6.78,1.9-9.42,2.21-2.83,6.27-4.09,9.88-3.22,3.79.82,6.77,4.14,7.6,7.91.75,3.77-.1,7.62-1.72,10.88-1.61,3.34-4.21,6.23-7.38,8.36-3.18,2.13-6.95,3.32-10.74,3.72-7.44.87-15.33-.94-21.81-4.77-6.82-4.14-11.61-10.77-13.62-18.24-.93-3.77-1.39-7.55-.55-11.66.81-4.04,3.88-8.43,8.87-9.34,2.5-.46,5.09.29,6.93,1.55,1.87,1.22,3.33,3.05,4.19,4.81,1.84,3.88,1.88,7.49,1.87,10.65-.14,6.77-1.88,12.92-4.87,18.11-2.98,5.15-7.38,9.2-12.13,11.17-4.7,2.06-9.12,2.24-12.45,2.24-3.37-.05-5.89-.37-7.59-.55-1.68-.22-2.57-.32-2.57-.32-2.11-.26-3.62-2.18-3.35-4.29.26-2.11,2.18-3.61,4.29-3.35.02,0,.04.01.07.01h.04s.86.13,2.49.37c1.6.21,3.94.55,6.77.64,2.84.07,6.18-.02,9.48-1.41,3.3-1.27,6.56-4.04,9.01-8.03,2.44-3.97,4.06-9.23,4.28-14.66.14-2.88-.08-5.75-.97-7.73-.94-2.13-2.95-3.48-4.48-3.19-.82.11-1.79.63-2.54,1.46-.67.68-1.34,1.96-1.61,3.19-.64,2.61-.41,5.92.29,8.92,1.43,6.07,5.48,11.82,10.75,15.17,5.65,3.5,12.28,5.16,18.76,4.57,6.34-.41,12.1-3.98,14.78-9.32,1.38-2.62,2.01-5.53,1.58-8.08-.51-2.48-2.34-4.57-4.58-5.08-2.32-.57-4.79.11-6.2,1.84-1.49,1.77-1.98,4.05-1.37,6.17,1.32,4.34,5.28,7.54,8.67,9.75,3.5,2.36,6.77,3.25,9.79,3.58,2.95.34,5.37.29,7.01.28,1.66-.03,2.54-.05,2.54-.05.73-.02,1.34.56,1.36,1.29.02.72-.55,1.32-1.27,1.35Z" fill="#525c6b"/>
  <path d="m242.52,8.03l-.41-.28c-4.11-2.73-9.66-1.61-12.39,2.49l-8.88,13.35,15.3,10.18,8.89-13.35c2.73-4.12,1.61-9.66-2.5-12.39Z" fill="#f87670"/>
  <path d="m214.61,19.45l-78.5,118-4.09,6.15c-2.97,4.45-5.43,9.19-7.43,14.11l25.01,16.64c3.77-3.74,7.19-7.85,10.15-12.31l4.09-6.14,78.5-118-27.73-18.45Z" fill="#ffbd66"/>
  <path d="m119.14,179.83l-1.49,15.44,13.67-7.34c1.44-.77,2.84-1.61,4.22-2.47l-15.74-10.48c-.26,1.61-.5,3.22-.65,4.85Z" fill="#7a8e9b"/>
  <path d="m124.6,157.71c-2.25,5.55-3.85,11.34-4.81,17.27l15.74,10.48c5.1-3.17,9.83-6.89,14.07-11.11l-25.01-16.64Z" fill="#f87670"/>
  <rect x="177.99" y="50.92" width="64.99" height="9.63" transform="translate(47.4 200.01) rotate(-56.33)" fill="#db5743"/>
</svg>