<?xml version="1.0" encoding="UTF-8"?>
<svg id="Layer_1" width="512" height="512" class="card-image-icon" data-name="Layer 1" xmlns="http://www.w3.org/2000/svg" viewBox="0 0 172.69 178.09">
  <rect x="17.54" y="58.01" width="137.61" height="114.68" fill="#f1bb6b"/>
  <polygon points="172.69 58.01 0 58.01 16.2 0 86.35 0 156.5 0 172.69 58.01" fill="#e49a61"/>
  <g>
    <path d="m46.55,123h-5.4c-4.83,0-8.77,3.93-8.77,8.77v16.86h22.94v-16.86c0-4.84-3.94-8.77-8.77-8.77Z" fill="#e2e2e2"/>
    <path d="m46.55,75.78h-5.4c-4.83,0-8.77,3.93-8.77,8.77v16.86h22.94v-16.86c0-4.84-3.94-8.77-8.77-8.77Z" fill="#e2e2e2"/>
    <rect x="72.18" y="123" width="28.33" height="53.06" fill="#e2e2e2"/>
    <path d="m83.65,75.78c-4.84,0-8.77,3.93-8.77,8.77v16.86h22.93v-16.86c0-4.84-3.94-8.77-8.77-8.77h-5.39Z" fill="#e2e2e2"/>
    <path d="m99.17,24.96c0-4.83-3.93-8.77-8.77-8.77h-8.1c-4.84,0-8.77,3.94-8.77,8.77v16.86h25.64v-16.86Z" fill="#e2e2e2"/>
    <path d="m136.27,16.19h-8.09c-4.83,0-8.77,3.94-8.77,8.77v16.86h25.63v-16.86c0-4.83-3.93-8.77-8.77-8.77Z" fill="#e2e2e2"/>
    <path d="m53.29,24.96c0-4.83-3.93-8.77-8.77-8.77h-8.1c-4.84,0-8.77,3.94-8.77,8.77v16.86h25.64v-16.86Z" fill="#e2e2e2"/>
    <path d="m131.54,123h-5.4c-4.84,0-8.77,3.93-8.77,8.77v16.86h22.93v-16.86c0-4.84-3.94-8.77-8.77-8.77Z" fill="#e2e2e2"/>
    <path d="m131.54,75.78h-5.4c-4.84,0-8.77,3.93-8.77,8.77v16.86h22.93v-16.86c0-4.84-3.94-8.77-8.77-8.77Z" fill="#e2e2e2"/>
  </g>
  <g>
    <path d="m46.55,120.98h-5.4c-5.96,0-10.79,4.83-10.79,10.79v18.89h26.98v-18.89c0-5.96-4.83-10.79-10.79-10.79Zm6.75,25.63h-18.89v-14.84c0-3.72,3.03-6.75,6.74-6.75h5.4c3.72,0,6.75,3.02,6.75,6.75v14.84Z" fill="#7a8e9b"/>
    <path d="m46.55,73.75h-5.4c-5.96,0-10.79,4.83-10.79,10.79v18.89h26.98v-18.89c0-5.96-4.83-10.79-10.79-10.79Zm6.75,25.64h-18.89v-14.85c0-3.72,3.03-6.75,6.74-6.75h5.4c3.72,0,6.75,3.03,6.75,6.75v14.85Z" fill="#7a8e9b"/>
    <path d="m70.16,178.09h32.38v-57.11h-32.38v57.11Zm4.05-53.06h24.28v49.02h-24.28v-49.02Z" fill="#7a8e9b"/>
    <path d="m83.65,73.75c-5.96,0-10.8,4.83-10.8,10.79v18.89h26.99v-18.89c0-5.96-4.83-10.79-10.8-10.79h-5.39Zm12.14,10.79v14.85h-18.88v-14.85c0-3.72,3.02-6.75,6.74-6.75h5.39c3.72,0,6.75,3.03,6.75,6.75Z" fill="#7a8e9b"/>
    <path d="m136.27,14.17h-8.1c-5.95,0-10.79,4.83-10.79,10.79v18.89h29.68v-18.89c0-5.96-4.83-10.79-10.8-10.79Zm-14.84,25.64v-14.85c0-3.72,3.03-6.74,6.74-6.74h2.03v21.59h-8.77Zm21.58,0h-8.77v-21.59h2.02c3.72,0,6.74,3.02,6.74,6.74v14.85Z" fill="#7a8e9b"/>
    <path d="m131.54,120.98h-5.4c-5.96,0-10.8,4.83-10.8,10.79v18.89h26.98v-18.89c0-5.96-4.83-10.79-10.79-10.79Zm6.74,25.63h-18.89v-14.84c0-3.72,3.03-6.75,6.75-6.75h5.4c3.72,0,6.74,3.02,6.74,6.75v14.84Z" fill="#7a8e9b"/>
    <path d="m131.54,73.75h-5.4c-5.96,0-10.8,4.83-10.8,10.79v18.89h26.98v-18.89c0-5.96-4.83-10.79-10.79-10.79Zm6.74,25.64h-18.89v-14.85c0-3.72,3.03-6.75,6.75-6.75h5.4c3.72,0,6.74,3.03,6.74,6.75v14.85Z" fill="#7a8e9b"/>
    <path d="m38.45,43.85h16.86v-18.89c0-5.96-4.83-10.79-10.79-10.79h-8.1c-5.96,0-10.79,4.83-10.79,10.79v18.89h12.82Zm12.82-18.89v14.85h-8.77v-21.59h2.03c3.72,0,6.75,3.02,6.75,6.74Zm-21.59,14.85v-14.85c0-3.72,3.02-6.74,6.74-6.74h2.03v21.59h-8.77Z" fill="#7a8e9b"/>
    <path d="m84.33,43.85h16.86v-18.89c0-5.96-4.83-10.79-10.79-10.79h-8.1c-5.96,0-10.79,4.83-10.79,10.79v18.89h12.82Zm12.82-18.89v14.85h-8.77v-21.59h2.03c3.72,0,6.74,3.02,6.74,6.74Zm-21.59,14.85v-14.85c0-3.72,3.03-6.74,6.75-6.74h2.03v21.59h-8.77Z" fill="#7a8e9b"/>
  </g>
  <rect y="172.7" width="172.69" height="5.39" fill="#525c6b"/>
  <path d="m91.93,150.27c0,1.12.91,2.02,2.02,2.02s2.03-.9,2.03-2.02-.9-2.03-2.03-2.03-2.02.91-2.02,2.03Z" fill="#525c6b"/>
</svg>