<?xml version="1.0" encoding="UTF-8"?>
<svg id="Layer_1" data-name="Layer 1"  class="card-image-icon" xmlns="http://www.w3.org/2000/svg" viewBox="0 0 343.66 360.87">
  <path d="m208.86,20.98l7.57-20.98-65.27,11.7,42.76,50.69,7.31-20.25c47.36,29.63,72.71,84.82,63.63,140.76l21.88,3.56c10.79-66.43-20.38-131.81-77.87-165.49Z" fill="#ffbd66"/>
  <path d="m142.01,58.89c-5.95-1.47-12.08-2.52-18.41-3.01-6.3-.5-12.54-.44-18.65.08l-9.26,38.36c-3.54.88-6.98,2.04-10.32,3.38l-30-25.64c-10.71,6.43-20.25,14.58-28.3,24.1l20.6,33.69c-1.85,3.09-3.55,6.33-4.96,9.67l-39.36,3.11c-1.47,5.95-2.5,12.11-2.99,18.41-.51,6.32-.46,12.54.05,18.64l38.39,9.27c.87,3.54,2.03,6.99,3.36,10.33l-25.64,30.04c6.45,10.65,14.6,20.22,24.16,28.27l33.66-20.61c3.09,1.89,6.31,3.55,9.66,4.96l3.1,39.34c5.95,1.49,12.1,2.51,18.41,3.01,6.32.5,12.54.46,18.65-.08l9.26-38.36c3.54-.86,6.98-1.99,10.3-3.36l30.03,25.64c10.67-6.44,20.25-14.61,28.29-24.1l-20.62-33.71c1.91-3.08,3.55-6.31,4.97-9.66l39.35-3.11c1.47-5.95,2.46-12.08,2.97-18.4.49-6.29.49-12.55-.03-18.65l-38.37-9.27c-.88-3.52-2.01-6.98-3.38-10.32l25.66-30.03c-6.45-10.67-14.61-20.22-24.13-28.26l-33.7,20.59c-3.08-1.85-6.29-3.55-9.65-4.96l-3.1-39.35Z" fill="#7a8e9b"/>
  <path d="m118.05,125.9c24.4,1.93,42.62,23.29,40.68,47.7-1.93,24.41-23.28,42.63-47.69,40.69-24.42-1.93-42.63-23.28-40.71-47.7,1.94-24.42,23.3-42.63,47.72-40.69Z" fill="#c6c6c6"/>
  <path d="m249.26,229.14c-3.39,1.4-6.73,3.06-9.95,5.06-3.22,1.98-6.21,4.22-8.97,6.63l9.09,21.79c-1.4,1.67-2.64,3.45-3.79,5.28l-23.54-1.78c-2.89,6.9-4.62,14.21-5.14,21.64l21.84,8.98c.2,2.14.53,4.3,1.03,6.42l-17.89,15.42c1.38,3.39,3.07,6.72,5.05,9.93,2,3.23,4.21,6.22,6.62,8.99l21.8-9.1c1.67,1.4,3.45,2.66,5.27,3.8l-1.76,23.56c6.88,2.86,14.2,4.6,21.65,5.11l8.96-21.85c2.15-.17,4.29-.52,6.41-1.02l15.41,17.9c3.39-1.39,6.72-3.07,9.94-5.06,3.23-1.99,6.22-4.21,8.98-6.61l-9.09-21.8c1.41-1.66,2.66-3.43,3.78-5.27l23.57,1.76c2.86-6.88,4.59-14.21,5.12-21.63l-21.86-8.98c-.17-2.16-.52-4.29-1.01-6.41l17.9-15.42c-1.39-3.39-3.09-6.7-5.07-9.93-1.98-3.21-4.2-6.23-6.61-8.98l-21.8,9.09c-1.67-1.39-3.44-2.67-5.29-3.79l1.78-23.57c-6.88-2.86-14.21-4.59-21.64-5.11l-8.99,21.84c-2.13.2-4.28.52-6.4,1.01l-15.4-17.89Z" fill="#525c6b"/>
  <path d="m263.65,273.65c10.42-6.43,24.09-3.19,30.53,7.22,6.43,10.43,3.2,24.09-7.23,30.53-10.42,6.43-24.09,3.2-30.52-7.23-6.43-10.42-3.21-24.09,7.22-30.52Z" fill="#e2e2e2"/>
</svg>