<?xml version="1.0" encoding="UTF-8"?>
<svg id="Layer_1" data-name="Layer 1" class="card-image-icon" xmlns="http://www.w3.org/2000/svg" viewBox="0 0 292.81 303.08">
  <g id="NewGroupe1">
    <g id="NewGroup4-4">
      <g>
        <path d="m141.5,170.6v5.91l83.58-97.99c.42-1.04,1.16-1.92,2.1-2.51l45.03-54.86V0h-129.15c-2.79,0-5.4,1.23-7.18,3.38L9.26,161.58h123.22c4.98,0,9.02,4.05,9.02,9.02h0Z" fill="gray"/>
        <polygon points="45.58 237.49 15.61 274.33 45.58 274.33 45.58 237.49 45.58 237.49" fill="#4d4d4d"/>
        <path d="m141.37,193.29c-.68,4.08-4.1,7.24-8.3,7.52-.21.03-.43.04-.64.04-.09,0-.17,0-.26-.01h-47.19v73.76h47.49c4.98,0,9.02,4.05,9.02,9.02v6.49l148.4-179.19c1.87-2.29,2.91-5.23,2.91-8.23v-16.53l-59.9-.2-91.54,107.33h0Z" fill="#666"/>
        <path d="m130.71,285.39h-51.12c-2.98,0-5.39-2.42-5.39-5.39v-84.55c0-2.98,2.42-5.39,5.39-5.39h50.36l.76-.89v-16.8H0v17.69h51.12c2.98,0,5.39,2.42,5.39,5.39v84.55c0,2.98-2.42,5.39-5.39,5.39H0v17.69h130.71v-17.69h0Z" fill="#29abe2"/>
      </g>
    </g>
  </g>
</svg>