<?xml version="1.0" encoding="UTF-8"?>
<svg id="Layer_1" data-name="Layer 1" xmlns="http://www.w3.org/2000/svg" viewBox="0 0 233.14 233.87">
  <g>
    <path d="m4.39,195c0,5.2,4.26,9.46,9.46,9.46h43.6c5.21,0,9.46-4.26,9.46-9.46v-40.56H4.39v40.56Z" fill="#79ccb8"/>
    <rect x="4.39" y="104.43" width="62.52" height="50.01" fill="#59c5ef"/>
    <path d="m57.45,4.39H13.86c-5.2,0-9.46,4.26-9.46,9.46v40.56h62.52V13.86c0-5.2-4.26-9.46-9.46-9.46Z" fill="#f1bb6b"/>
    <rect x="4.39" y="54.41" width="62.52" height="50.02" fill="#e49a61"/>
    <path d="m57.45,0H13.86C6.21,0,0,6.21,0,13.86v181.15c0,7.64,6.21,13.86,13.86,13.86h43.6c7.64,0,13.86-6.22,13.86-13.86V13.86c0-7.65-6.22-13.86-13.86-13.86Zm5.07,100.03H8.79v-41.22h53.73v41.22Zm-53.73,8.8h53.73v41.22H8.79v-41.22Zm0-94.97c0-2.79,2.27-5.06,5.07-5.06h43.6c2.79,0,5.07,2.26,5.07,5.06v36.16H8.79V13.86Zm53.73,181.15c0,2.78-2.27,5.07-5.07,5.07H13.86c-2.79,0-5.07-2.28-5.07-5.07v-36.16h53.73v36.16Z" fill="#7a8e9b"/>
  </g>
  <g>
    <rect x="71.77" y="92.72" width="50.01" height="62.51" transform="translate(-59.27 104.34) rotate(-44.85)" fill="#e2e2e2"/>
    <path d="m28.25,148.05c-3.69,3.67-3.7,9.7-.03,13.39l30.75,30.9c3.68,3.69,9.69,3.7,13.38.04l28.75-28.61-44.09-44.32-28.75,28.6Z" fill="#ffbd66"/>
    <path d="m200.79,51.24l-30.74-30.91c-3.68-3.68-9.69-3.7-13.38-.03l-28.75,28.61,44.1,44.31,28.75-28.6c3.69-3.67,3.71-9.69.03-13.38Z" fill="#79ccb8"/>
    <rect x="107.23" y="57.45" width="50.02" height="62.51" transform="translate(-24.07 119.1) rotate(-44.86)" fill="#db5743"/>
    <path d="m203.91,48.13l-30.75-30.89c-2.6-2.62-6.08-4.08-9.78-4.08h-.04c-3.69,0-7.16,1.43-9.77,4.02l-28.75,28.61h0l-35.47,35.28h0l-35.45,35.27h0s-28.75,28.61-28.75,28.61c-5.41,5.39-5.44,14.18-.05,19.61l30.75,30.89c2.6,2.62,6.08,4.07,9.79,4.08h.04c3.7,0,7.17-1.43,9.77-4.03l28.75-28.6h0l35.46-35.28,35.45-35.28,28.75-28.61c2.61-2.59,4.06-6.07,4.07-9.78.01-3.71-1.42-7.2-4.03-9.82Zm-102.79,109.43l-37.89-38.1,29.22-29.07,37.89,38.08-29.22,29.09Zm35.46-35.29l-11.25-11.3-26.65-26.78,29.23-29.08,37.89,38.09-29.22,29.07Zm-67.33,66.99c-.94.94-2.22,1.47-3.57,1.47h-.01c-1.36-.01-2.63-.54-3.57-1.49l-30.76-30.91c-1.97-1.97-1.96-5.18.02-7.16l25.64-25.5,37.89,38.08-25.64,25.51ZM197.66,61.51l-25.63,25.49-19.12-19.21-18.78-18.87,25.63-25.5c.95-.95,2.22-1.47,3.57-1.47h.02c1.36,0,2.64.53,3.58,1.49l30.75,30.9c.94.95,1.46,2.22,1.46,3.59,0,1.36-.53,2.62-1.48,3.58Z" fill="#525c6b"/>
  </g>
  <g>
    <rect x="78.7" y="166.96" width="50.01" height="62.52" fill="#f87670"/>
    <path d="m38.14,166.96c-5.2,0-9.46,4.25-9.46,9.46v43.6c0,5.2,4.25,9.46,9.46,9.46h40.56v-62.52h-40.56Z" fill="#59c5ef"/>
    <path d="m219.28,166.96h-40.56v62.52h40.56c5.2,0,9.46-4.26,9.46-9.46v-43.6c0-5.21-4.26-9.46-9.46-9.46Z" fill="#fddc85"/>
    <rect x="128.71" y="166.96" width="50.02" height="62.52" fill="#79ccb8"/>
    <path d="m219.28,162.56H38.14c-7.64,0-13.86,6.21-13.86,13.86v43.6c0,7.64,6.21,13.86,13.86,13.86h181.15c7.64,0,13.86-6.22,13.86-13.86v-43.6c0-7.65-6.22-13.86-13.86-13.86Zm-186.21,57.45v-43.6c0-2.79,2.27-5.07,5.06-5.07h36.16v53.72h-36.16c-2.79,0-5.06-2.26-5.06-5.06Zm50.01-48.66h41.23v53.72h-41.23v-53.72Zm50.01,0h41.23v53.72h-41.23v-53.72Zm91.24,48.66c0,2.79-2.27,5.06-5.06,5.06h-36.16v-53.72h36.16c2.79,0,5.06,2.27,5.06,5.07v43.6Z" fill="#7a8e9b"/>
    <path d="m63.79,198.21c0,5.18-4.2,9.38-9.38,9.38s-9.37-4.2-9.37-9.38,4.2-9.38,9.37-9.38,9.38,4.2,9.38,9.38Z" fill="#fff"/>
  </g>
</svg>