<?xml version="1.0" encoding="UTF-8"?>
<svg id="Layer_1" data-name="Layer 1"  xmlns="http://www.w3.org/2000/svg" viewBox="0 0 242.27 260.24">
  <path d="m217.99,131.07c0,48.24-39.1,87.35-87.34,87.35s-87.36-39.11-87.36-87.35,39.12-87.35,87.36-87.35,87.34,39.1,87.34,87.35Z" fill="#ffbd66"/>
  <path d="m123.05,205.15l-5.7-22.74-5.15-20.62c-.66-2.65-2.03-5.07-3.97-7.01l-3.62-3.62-22.42-22.42-3.84-3.85c-5.89-5.88-15.43-5.88-21.32,0L4.42,177.53c-5.89,5.89-5.89,15.43,0,21.31l56.98,56.99c5.88,5.88,15.43,5.88,21.31,0l36.37-36.38c3.74-3.74,5.24-9.18,3.97-14.31Zm-26.82,1.86l-20.32,20.31c-1.3,1.32-3.44,1.32-4.75,0l-38.24-38.24c-1.32-1.32-1.32-3.44,0-4.75l30.93-30.92c1.3-1.3,3.43-1.3,4.74,0l20.56,20.56c.43.43.73.97.88,1.56l7.07,28.29c.28,1.15-.06,2.35-.87,3.19Z" fill="#7a8e9b"/>
  <path d="m108.23,154.79c1.94,1.93,3.31,4.35,3.97,7.01l5.15,20.62h0l12.14-12.14,21.44,3.17-3.18-21.44,21.44,3.17-3.18-21.44,21.44,3.17-3.16-21.44,21.43,3.17-3.17-21.44,21.43,3.17-3.17-21.44,21.43,3.17-18.95-49.65-118.71,118.72,3.62,3.62Z" fill="#e2e2e2"/>
  <polygon points="82.19 128.75 104.61 151.17 223.32 32.45 210.95 0 82.19 128.75" fill="#c6c6c6"/>
</svg>